<?xml version="1.0" encoding="UTF-8"?>
<svg id="_レイヤー_2" data-name="レイヤー 2" xmlns="http://www.w3.org/2000/svg" viewBox="0 0 173.83 34.37">
  <defs>
    <style>
      .cls-1 {
        fill: #655046;
        stroke-width: 0px;
      }
    </style>
  </defs>
  <g id="PCトップ_暫定_" data-name="PCトップ（暫定）">
    <g>
      <path class="cls-1" d="M21.38,13.7c.08.12-.18.56-.36.72-.05.05-.13.14-.22.24-.09.1-.19.22-.27.32-.06.05-.14.18-.35.44-.03.04-.04.09-.24.28-.06.07-.13.18-.24.39-.06.09-.17.2-.25.29-.08.09-.14.19-.21.28-.05.06-.11.08-.19.21-.06.07-.12.12-.18.2-.06.08-.12.15-.18.23-.11.13-.29.31-.42.46-.03.04-.08.08-.19.22-.08.08-.16.13-.23.2-.1.11-.19.24-.27.35-.07.09-.13.17-.35.45-.1.09-.24.18-.34.29-.04.05-.08.09-.19.29-.07.08-.15.15-.23.21-.09.06-.18.12-.27.2-.04.03-.07.07-.11.11-.04.04-.08.08-.11.12-.08.08-.16.15-.23.23-.08.09-.14.21-.24.29-.03.02-.06.04-.11.07s-.13.08-.25.17c-.08.05-.17.08-.25.13-.06.04-.12.08-.2.15-.04.03-.09.07-.14.11-.03.02-.06.05-.09.07-.03.03-.07.06-.11.09-.06.04-.13.06-.19.09-.03.01-.07.03-.1.04-.03.01-.07.03-.1.05-.02.01-.05.03-.09.06-.02.02-.04.03-.08.06s-.07.05-.11.08c-.02.01-.04.02-.08.04-.02,0-.04.02-.07.03-.01,0-.03.01-.05.02-.02,0-.04.02-.06.03-.05.02-.09.03-.14.05-.05.01-.09.03-.14.05-.12.04-.22.12-.37.17-.05.02-.09.02-.13.03-.05,0-.11,0-.19.01-.02,0-.05,0-.1.02-.05,0-.12.01-.23.02-.02,0-.05,0-.08.01-.03,0-.05.01-.08.02-.05.01-.11.03-.17.03-.09,0-.18,0-.27,0-.09,0-.18-.01-.27-.01-.05,0-.11,0-.16-.01-.03,0-.06,0-.09,0-.03,0-.06-.01-.1-.02-.03,0-.07-.01-.13-.04-.03-.01-.07-.03-.11-.05s-.1-.05-.17-.09c-.06-.03-.13-.04-.19-.05-.14.1-.32-.13-.41-.27-.05-.06-.15-.07-.27-.24-.05-.06-.2-.11-.42-.33-.04-.09-.16-.16-.21-.45,0-.02-.04-.04-.15-.3-.01-.06.02-.12-.09-.33-.02-.05-.01-.13-.09-.39-.03-.16.03-.31-.09-.42.03-.15.03-.35,0-.57,0-.06-.05-.12-.06-.45,0-.15.02-.33.03-.48,0-.11.06-.24.06-.36,0-.25-.08-.44-.06-.74,0-.07.01-.16.09-.42,0-.13-.05-.26-.06-.69,0-.05,0-.12,0-.45-.04-.12-.16-.21-.15-.36-.14-.1-.35-.13-.48-.24-.22.01-.37-.09-.57-.15-.21-.06-.33-.07-.45-.15-.03-.02-.09-.09-.21-.39-.04-.11-.18-.18-.09-.48.21-.2.95-.25,1.34-.15.06.02.12.02.39.09.13.01.2.01.42.15.06.04.09.14.36.27.02.01.07.13.3.33.04.07.05.15.24.39.39-.07.92,0,1.13-.24.44-.08.69-.34,1.1-.71.08-.06.1-.16.27-.27.02-.02.01-.04.21-.33.07-.13.16-.33.3-.45-.03-.15.09-.26.15-.42.05-.13.07-.28.12-.42.03-.08.08-.17.15-.36.07-.37-.03-.68-.15-.98-.06-.12-.22-.16-.24-.33-.16-.03-.26-.11-.6-.3-.14-.02-.34.05-.51.09s-.32.1-.51.09c-.07.02-.08.08-.36.18-.15.08-.2.17-.48.3-.13.04-.24,0-.36.06-.14.06-.23.18-.3.3-.1,0-.13.05-.42.21-.08-.02-.13.06-.33.21-.16,0-.24.07-.33.15-.19.02-.33.09-.6.42-.1.04-.2.08-.42.33-.21.1-.33.29-.77.51-.18,0-.21.17-.51.3.03.13-.05.15-.27.27-.06.08-.08.2-.33.45-.07.05-.11.14-.27.36-.08.02-.1.09-.21.27-.13.03-.12.19-.36.39-.01.16-.13.22-.3.48.02.23-.1.36-.33.74-.01.2-.08.34-.21.42-.02.2-.14.3-.33.71-.05.1-.02.24-.06.36-.02.07-.15.17-.12.33-.06.12-.22.13-.21.33-.12.04-.17.17-.27.24.03.19-.1.22-.09.39-.14.07-.14.27-.33.62-.04.15-.06.23-.27.51-.03.11.05.16-.06.33-.05.11-.04.15-.27.51-.04.04-.01.16-.12.36-.03.06-.11.14-.27.36-.02.27-.14.44-.3.57-.04.22-.2.34-.6.39-.11.06-.23.16-.36.15-.14,0-.24-.16-.36-.21-.07-.22-.06-.38.24-.77,0-.15.07-.3.12-.42.05-.12.09-.24.18-.33.04-.22.03-.49.18-.6-.01-.14.05-.26.15-.45.03-.06-.02-.14.12-.48.02-.04.07-.07.18-.42.06-.15.11-.37.18-.57.04-.11.11-.24.3-.62.07-.17.1-.38.24-.51.05-.27.14-.55.39-1.04.03-.39.25-.59.3-.95.06-.12.13-.24.18-.39.05-.14.05-.31.21-.68.13-.08.1-.27.15-.39.02-.04.07-.07.18-.39.01-.05.01-.11.21-.42.01-.02-.01-.06.12-.33.02-.03.07-.06.18-.36.1-.26.18-.53.27-.8.07-.22.12-.38.21-.6.04-.1.06-.22.15-.3,0-.15.06-.26.12-.39.05-.11.14-.22.18-.33.04-.11.05-.24.09-.36.04-.11.13-.2.12-.33.18-.11.18-.41.3-.62.04-.07.11-.12.27-.36.02-.29.14-.55.27-.77.09-.17.2-.32.33-.45.02-.19.16-.34.33-.77,0-.01.05-.02.18-.3.02-.04.05-.12.24-.39.09-.15.14-.32.3-.63.11-.12.17-.25.45-.62.03-.04.04-.11.21-.42.27-.16.33-.52.74-.86.15-.19.41-.25.48-.54.12-.02.16-.14.45-.36.17-.11.35-.31.57-.42.07-.02.09-.1.33-.3.16-.19.44-.37.89-.65.04-.04.16-.15.33-.18.11-.06.2-.13.3-.18.1-.05.21-.05.3-.15.18-.03.36,0,.54-.03.14-.02.28-.08.48-.03.06.02.32.15.48.3.03.2.17.29.3.54.02.02,0,.07.21.36.04.14.07.24-.06.36,0,.18-.02.32-.06.45-.03.1-.09.17-.15.3-.03.07-.08.13-.18.6-.13.1-.21.29-.21.45-.12.1-.19.23-.39.48-.12.15-.25.31-.54.57,0,.16-.12.18-.33.54-.04.17-.14.35-.45.54-.21.14-.35.38-.57.51-.03.13-.13.23-.21.33-.02.03-.07.03-.24.27-.08.07-.2.12-.3.15-.14.25-.29.48-.65.83-.24.09-.38.3-.54.48-.25.09-.34.34-.74.62-.11.03-.14.14-.45.39-.03.03-.11.02-.3.21-.04.04-.08.09-.36.33-.07.09-.18.14-.27.21-.21.16-.36.29-.42.62-.08.05-.16.1-.21.36-.11.14-.23.39-.39.8,0,.06,0,.12-.12.33.06.18.25.23.42.3.12-.06.25-.12.36-.12.23-.13.36-.36.77-.6.2-.05.34-.16.45-.3.19.02.2-.13.36-.15.06-.11.22-.12.27-.24.23,0,.35-.16.77-.45.1-.06.23-.07.33-.12.11-.06.2-.12.48-.21.19-.16.48-.24.68-.39.16.02.3,0,.36-.09.23-.03.49-.02.71,0,.06,0,.11-.03.36.03.15.03.3.06.74.18.12.05.23.19.33.3.08.09.15.19.24.27.19.15.26.42.42.6,0,.2.17.37.21.63.02.15,0,.33,0,.48,0,.07-.05.14-.03.54-.09.12-.13.31-.33.65-.05.06-.1.12-.21.3,0,0-.03.06-.21.27-.08.01-.09.09-.24.3-.34.14-.57.4-1.07.62-.14,0-.26-.02-.45.06-.16.07-.27.19-.77.12-.15.1-.44.17-.62.06-.15.05-.23.17-.42.18.03.18.07.35.15.48-.07.18.08.36.06.77.03.35.26.69.12,1.01.05.13.06.25.09.48-.08.07.02.19,0,.54,0,.15.04.26,0,.51.03.08-.04.24-.06.71,0,.11-.01.23-.09.48-.01.08.08.17.03.36-.08.09-.01.2,0,.6,0,.09.05.2.08.28.03.09.04.22.09.29.05.07.12.18.21.2.02,0,.04,0,.06.01.05.02.11.02.17.03.06,0,.12,0,.17.02.03,0,.06.02.09.03.03.01.06.02.09.04.03.01.06.03.09.04.02,0,.03.01.05.01.01,0,.03,0,.04,0,.07,0,.13,0,.2-.03.06-.02.13-.05.19-.05.05,0,.11,0,.19-.01.08,0,.19-.03.34-.08.05,0,.1,0,.16,0,.03,0,.05,0,.08-.01.02,0,.05-.01.07-.01.02,0,.03,0,.06,0,.02,0,.04,0,.07,0,.02,0,.03,0,.06,0,.02,0,.04,0,.07-.01.01,0,.03-.01.07-.04.04-.02.1-.06.19-.13.1-.03.19-.06.27-.1.09-.04.18-.07.3-.11.1-.07.14-.16.22-.25.05-.02.1-.05.14-.06.02,0,.05-.02.07-.03.02,0,.05-.02.07-.03.09-.04.17-.08.25-.13.07-.05.12-.1.19-.16.04-.03.08-.06.14-.09.06-.03.12-.07.21-.1.04-.02.08-.06.13-.09.05-.03.09-.06.15-.06.05-.09.13-.16.24-.26.1-.1.22-.21.33-.36.04-.04.07-.1.12-.16.03-.03.06-.07.11-.1.05-.04.11-.08.19-.12.11-.07.16-.2.3-.27.08-.11.14-.34.35-.46.03-.11.16-.16.25-.26.06-.07.11-.14.16-.22.05-.08.11-.17.19-.26.02-.12.16-.25.43-.48.05-.05.07-.11.25-.33.07-.08.16-.15.23-.19,0-.1.14-.14.33-.42.11-.13.27-.23.31-.36.18-.03.34-.37.61-.71.15-.12.23-.31.55-.63.14-.17.2-.33.38-.52.08-.08.49-.56.53-.58.14-.07.21-.06.24-.02h0ZM8.25,14.49c.12-.14,0-.35,0-.54-.13-.06-.2-.18-.48-.21-.11-.07-.31-.06-.45-.03-.04,0-.05.04-.36.24.06.16.2.16.33.21.12.04.24.09.62.24.09.04.18.12.33.09h0ZM7.36,9.16c.23.04.25-.15.57-.36.1-.17.26-.27.42-.39.11-.12.24-.22.36-.33.12-.1.23-.24.66-.48.12-.25.4-.34.51-.6.2-.06.29-.22.39-.39.2-.1.29-.3.6-.54.09-.08.21-.24.51-.48.13-.1.19-.28.54-.54-.01-.16.12-.18.27-.42.06-.09.08-.22.42-.48.11-.24.26-.43.42-.62.15-.19.35-.38.51-.86-.05-.11.05-.16.09-.39.02-.05.09-.1.21-.33.02-.27.15-.43.18-.68-.17-.22-.44-.33-.48-.68-.15-.12-.19-.13-.54-.24-.29-.01-.46.13-.77.45-.08.07-.18.11-.51.39-.17.16-.28.33-.45.63-.2.22-.28.55-.57.68-.09.23-.3.36-.54.83-.17.28-.37.52-.45.89-.16.17-.35.31-.36.62-.05.05-.11.09-.18.39-.13.11-.14.34-.3.42,0,.26-.19.33-.33.74-.01.32-.26.41-.42.92.02.17-.2.36-.27.74-.05.1-.06.16-.21.48-.04.1-.1.2-.15.3l-.12.3Z"/>
      <path class="cls-1" d="M36.63,14.32s0,.03,0,.04c0,.01,0,.03,0,.04-.03.12-.12.23-.19.26-.06.02-.19.11-.27.17-.04,0-.07.06-.19.14-.02.02-.02.04-.14.08-.04.02-.08.06-.16.18-.05.04-.13.07-.2.11-.06.04-.11.08-.17.11-.04.02-.08,0-.15.07-.05.02-.09.03-.14.06-.05.03-.1.06-.15.08-.09.04-.23.09-.34.13-.03.01-.07.02-.15.07-.06.02-.12.01-.18.03-.04.01-.08.03-.12.05-.04.02-.08.04-.11.06-.06.03-.11.06-.3.14-.04,0-.08,0-.13,0-.04,0-.09,0-.13.01-.04.01-.07.03-.18.11-.06.02-.12.02-.18.02-.03,0-.06,0-.09-.01-.03,0-.07,0-.1,0-.05,0-.12.02-.18.04-.06.01-.13.02-.18.03-.07.01-.14.07-.21.07-.04,0-.08-.03-.25-.04-.06-.01-.1-.05-.16-.06-.08-.02-.16,0-.39.01-.04,0-.08-.02-.12-.04s-.08-.03-.12-.04c-.02,0-.03,0-.06,0-.03,0-.07,0-.14.01-.03,0-.05-.02-.15-.03-.05-.01-.1-.05-.16-.06-.07-.01-.15,0-.23,0-.06,0-.08-.03-.16-.08-.02-.01-.06-.01-.17-.07-.05-.01-.12,0-.19-.02-.05-.01-.1-.03-.14-.05-.02,0-.05-.02-.07-.02-.02,0-.05-.02-.07-.02-.01,0-.03,0-.04-.01-.16.2-.33.39-.43.57-.05.08-.14.12-.33.51-.03.05-.11.15-.24.48-.03.04-.1.09-.21.27-.03.03-.17.05-.3.15-.06.04.03.1-.21.39-.1.09-.19.32-.36.39.01.17-.14.17-.15.33l-.33.21c0,.09-.06.13-.36.36-.08.14-.27.17-.57.39-.1.06-.17.14-.21.27-.15.11-.25.28-.6.6-.33.11-.66.21-1.04.51-.29.3-.73.26-1.34.39-.23-.03-.44.14-.6,0l-.21.06c-.09,0-.15-.03-.39-.03-.13-.09-.36-.07-.54-.12-.13-.05-.19-.17-.48-.15-.21-.02-.22-.26-.42-.3.04-.14-.07-.13-.15-.39-.04-.04-.13-.03-.33-.24-.07,0-.09-.05-.3-.21-.02-.02-.09-.11-.3-.36-.04-.12-.06-.31-.3-.6l-.12-.42c-.02-.34-.05-.66-.21-.86-.03-.27.04-.46.09-.68.02-.11.03-.26.18-.54.06-.15.03-.32.15-.42,0-.37.22-.54.27-.86.03-.11.12-.18.21-.36.15-.19.41-.4.74-.89.08-.01.09-.09.33-.3.07-.06.15-.09.3-.24.03-.03.04-.09.21-.33.12-.14.33-.27.6-.57.11-.1.29-.14.51-.36.25-.25.54-.48,1.16-.77.16-.08.31-.18.51-.27.19-.08.41-.13.6-.27.18-.01.31-.06.45-.15.23-.14.68-.19,1.16-.3.11-.03.3-.15.57-.11.02-.08.11-.04.33-.16.11-.02.34.03.51,0,.05,0,.11.03.42-.03.18-.02.39-.04.54,0,.08.02.2.03.33.06.17.04.31.1.57.39.06.08.14.09.24.24.05.05.04.26.15.33-.11.25.16.35.24.51.04.3.19.6.3,1.13-.02.24.04.39.03.63.01.09.02.18.03.26,0,.01,0,.02,0,.03,0,.18-.01.36-.13.53-.03.03-.06.06-.11.07.02.13-.07.27-.12.39.02.17-.02.34-.11.5,0,0,.01,0,.02,0,.07.03.17-.02.24,0,.06,0,.12.06.31.06.04.05.12.05.16.08.02.01.01.04.12.09.02,0,.04,0,.18-.02.05.03.11.04.16.05.05.01.11.03.17.07.07,0,.12-.06.19-.08.11.03.21.1.31.11.05,0,.09,0,.14,0,.05,0,.11.02.22.07.05.02.12,0,.18.06.05-.03.11-.04.19-.05.04,0,.08-.01.12-.02.04-.01.09-.02.14-.05.03,0,.06-.03.1-.04.04-.01.1-.02.21,0,.08.01.13-.05.22-.03.03-.01.07-.06.12-.09.05-.03.1-.06.17-.04.04-.07.12-.02.19-.05.05-.01.09-.04.13-.07.04-.03.09-.06.15-.09.03-.08.13-.1.33-.12.03,0,.06-.04.2-.11.06-.02.12-.03.17-.02,0-.04.03-.05.08-.06s.1-.03.18-.09c.08-.05.2-.04.23-.12.13.06.24-.1.39-.21.09-.02.13-.1.31-.17.08-.05.09-.14.2-.19.02-.01.1-.06.16-.1.07-.05.13-.09.14-.09.04,0,.08,0,.11,0,.03,0,.06,0,.08.02,0,0,.02.02.02.03,0,.01,0,.03.01.04h0ZM28.76,16.36c.16-.18.25-.43.42-.71-.01-.02-.03-.04-.04-.06-.04-.03-.09-.06-.13-.08-.05-.03-.09-.06-.12-.11,0,0,0-.02,0-.02-.05-.04-.12-.11-.29-.25-.04-.02-.09-.03-.34-.27-.03-.04-.06-.08-.24-.34-.02-.03-.03-.07-.22-.29-.03-.03-.06-.06-.23-.33-.02-.05-.04-.1-.18-.36-.03-.02-.04-.06-.16-.36,0-.03-.02-.07-.18-.35,0-.06,0-.13-.08-.45,0-.03,0-.06.08-.35-.05-.15-.05-.31-.04-.47,0-.08,0-.16.11-.51-.26-.01-.37.13-.73.27-.02.12-.13.1-.33.24-.16.07-.34.1-.51.15-.06.09-.12.17-.39.39-.14,0-.15.14-.33.27-.15,0-.13.18-.54.39-.03.06-.04.14-.24.3.04.23-.25.15-.27.3,0,.2-.11.46-.42.68-.06.14-.08.19-.3.54-.13.04-.15.18-.27.36-.18.14-.25.38-.48.71-.15.16-.39.23-.39.54-.14.11-.16.35-.33.63-.13.09-.14.29-.27.54-.07,0-.07.09-.18.42-.11.11-.21.27-.39.71-.03.1-.08.2-.06.45,0,.28-.11.56-.03.98,0,.02-.04.02.03.36.1.04.07.07.21.42.02.03.06.05.24.27.02.02.03.08.3.15.06.03.04.06.33.15.2.03.44.11.57.12.05,0,.11-.06.51-.09.23-.03.38,0,.51-.09.31.06.57-.18.98-.39.15,0,.25-.13.51-.21.07-.02.12-.09.3-.15.13-.06.22-.11.42-.48.15-.11.37-.23.68-.51.1,0,.12-.06.3-.24.09-.12.17-.15.27-.24.1-.08.16-.21.45-.42.01-.02.01-.04.24-.24-.01-.15.12-.16.18-.39.07,0,.11,0,.27-.3.25-.13.29-.46.54-.6.05-.21.1-.43.27-.65h0ZM27.42,12.2s0,.08.06.34c.02.07.03.15.05.46.06.03.1.06.23.32.01.02.02.04.18.31.01.03.02.05.15.31.02.02.04.04.26.25.03.02.05.03.18.28,0,.06.02.12.3.24.06.02.12.02.27.2.04.06.09.11.31.33l.08.05c.11-.23.27-.41.28-.74l.21-.77c.12-.2-.12-.42-.09-.71-.11-.07-.09-.21-.18-.51-.02-.17-.02-.38-.12-.51-.06-.12-.13-.22-.27-.63-.04-.06-.11-.07-.24-.33-.1.02-.18-.1-.51-.09-.2-.01-.27-.02-.36.09l-.58.05c0,.05-.01.1-.07.32-.01.03-.02.06-.06.35-.08.04-.12.08-.1.39Z"/>
      <path class="cls-1" d="M52.45,13.76s.03.12-.02.23-.12.23-.2.35c-.08.12-.18.23-.25.3-.06.05-.16.16-.28.29-.12.12-.25.26-.35.38-.08.05-.19.21-.48.51-.04.05-.04.05-.28.23-.07.06-.17.18-.33.39-.05.05-.12.11-.19.17-.05.04-.09.08-.13.12-.09.09-.17.19-.26.27-.06.05-.13.08-.23.21-.07.07-.14.11-.21.19-.08.08-.15.15-.23.22-.14.12-.35.31-.51.45-.04.04-.1.08-.23.21-.09.07-.19.12-.27.19-.12.1-.24.23-.36.34-.09.08-.17.17-.46.43-.12.09-.29.16-.42.27-.06.05-.1.09-.25.28-.18.16-.37.23-.59.37-.09.06-.18.15-.27.22-.09.08-.19.15-.27.22-.1.09-.17.21-.28.28-.06.04-.15.06-.4.24-.09.05-.18.08-.28.13-.14.08-.25.18-.58.46-.13.09-.28.14-.41.23-.05.03-.1.09-.27.25-.04.03-.09.05-.24.17-.09.06-.19.1-.27.16-.11.08-.19.18-.32.28-.08.07-.14.09-.29.17-.05.02-.08.07-.29.19-.08.06-.16.16-.25.23-.15.12-.3.21-.44.33-.07.06-.13.11-.21.17.04.16.06.33.03.5.05.12.06.29.15.72.02.11,0,.24,0,.36,0,.17.05.31,0,.8,0,.1-.04.21-.15.57-.02.12,0,.24-.03.36-.02.07-.06.09-.18.39.06.24-.15.44-.27.8,0,.25-.16.35-.15.62-.06.02-.1.06-.24.39-.13.1-.19.28-.45.71.02.11-.05.13-.18.48-.02.04-.07.05-.3.33.01.13-.11.13-.39.36-.06.1-.11.21-.24.24-.03.06-.04.14-.33.39-.06.19-.22.27-.36.39-.05.29-.31.39-.6.71-.08.15-.25.31-.71.51-.12.09-.26.17-.39.3-.26.06-.51.14-.62.36-.13,0-.24.06-.6.15-.14-.08-.31.02-.42.06-.14-.02-.21-.09-.36-.03-.16-.13-.37-.23-.51-.39-.02-.26-.2-.4-.39-.8,0-.16.01-.32,0-.48,0-.07-.05-.14-.03-.54,0-.08-.01-.17.06-.36.03-.12,0-.25.12-.51.02-.05.02-.1.03-.36.13-.26.12-.67.42-.77-.01-.06,0-.09.15-.3.09-.15.17-.35.33-.48-.02-.13.13-.26.21-.36.07-.08.1-.19.36-.48.07-.07.1-.15.3-.45.11-.08.21-.17.24-.33.21-.06.23-.3.51-.57.15-.08.26-.19.48-.36.09-.19.28-.28.57-.51.04-.06.1-.1.33-.3.07-.04.13-.11.48-.33.09-.04.06-.2.24-.33.23-.11.38-.37.86-.62.13-.12.32-.19.45-.36-.02-.36,0-.52,0-.95.01-.21.03-.3-.15-.71,0,0-.06-.02-.12-.33-.19-.15-.37-.32-.54-.51-.12.03-.2.03-.57-.09-.18,0-.32.06-.74.27-.17-.09-.27.07-.48.03-.13.08-.33.2-.68.27-.19.03-.31.12-.54.18-.14.04-.36.08-.69,0-.08.06-.28.04-.24-.24.13-.16.4-.21.57-.39.14.03.24-.1.57-.21.13-.04.21-.1.42-.15.06-.02.17-.06.45-.15.06-.01.12.02.39-.09.06-.04.1-.1.3-.18.15-.13.27-.29.51-.51.21-.02.22-.24.48-.45.16-.03.22-.2.45-.39.08-.06.12-.08.36-.45.23-.11.27-.4.51-.51.01-.06.01-.12.18-.45.02-.03.09-.05.27-.36.08-.12.17-.22.39-.62.09-.14.22-.34.33-.51.05-.08.04-.17.18-.33.23-.24.33-.61.57-.83.05-.24.15-.46.33-.8.08-.22.08-.46.27-.6,0-.26.11-.46.18-.65.03-.08.06-.24.15-.48.19-.2.16-.62.39-1.01.17-.38.24-.87.39-1.16-.07-.19-.13-.39-.57-.42-.14.04-.26.08-.45.12-.12.03-.22.06-.36.12-.12.05-.34.15-.77.39-.16,0-.37.04-.62.33-.08.09-.15.19-.21.27-.18.05-.25.21-.6.45-.15.02-.24.15-.48.3-.21.15-.35.34-.6.48-.21.29-.51.48-.71.77-.06.09-.24.17-.32.25-.09.09-.19.16-.32.09-.07-.04-.09-.16-.1-.24,0-.12.02-.1.11-.17.14-.11.2-.3.39-.34.04-.17.22-.2.24-.39.12-.04.16-.15.3-.18.14-.35.58-.39.92-.77.15-.1.23-.27.42-.33.13-.06.16-.24.51-.51.23-.05.33-.25.66-.42.09,0,.18-.05.54-.27.06-.03.14-.04.42-.12.11-.05.2-.14.48-.3.08-.01.16.03.45-.03.19-.02.36,0,.45.09.09-.07.15-.06.57.03.09.04.17.14.36.24.12.09.19.3.33.42-.01.2.17.38.21.86.01.23.1.58.03.77-.04.1.03.28-.03.71,0,.14.03.25,0,.42-.03.16-.08.24-.12.39-.04.16-.03.32-.15.42.04.22-.02.54-.15.68-.02.17-.05.45-.27.77-.13.08-.11.33-.3.63-.1-.01-.1.11-.24.3-.03.03-.09.08-.24.27,0,.13-.04.17-.06.33-.06.03-.14.04-.3.42-.19.17-.33.38-.45.63-.16.06-.23.18-.48.39-.04.03-.06.08-.27.33-.02.02-.07,0-.3.21-.01.2-.2.23-.27.39-.12-.02-.1.1-.51.24-.17.24-.41.4-.8.65-.1.07-.19.15-.45.42-.09.07-.24.06-.24.45.19.06.35.19.51.3.15.11.31.21.45.33.05.04.09.1.33.36.07.07.13.16.21.27.13.19.28.4.4.63.08-.03.16-.06.23-.11.13-.09.19-.23.31-.33.08-.07.24-.14.5-.4.11-.03.22-.14.32-.18.04-.02.06,0,.28-.12.03-.02.06-.06.25-.25.22-.11.35-.25.61-.36.1-.09.15-.19.23-.29.11-.06.21-.11.31-.16.1-.05.19-.1.28-.15.17-.11.22-.23.62-.38.09-.04.19-.15.32-.16.07-.09.17-.17.29-.26.12-.1.26-.21.41-.36.11-.09.15-.2.51-.37.13-.07.21-.19.36-.25.11-.1.22-.34.46-.44.06-.12.21-.15.31-.24.15-.12.26-.29.47-.46.02-.06.08-.13.16-.2.09-.07.21-.16.37-.27.06-.04.09-.11.32-.32.09-.08.19-.14.27-.18.01-.06.05-.09.12-.15.03-.03.08-.06.12-.1.05-.04.1-.1.16-.17.13-.13.32-.22.38-.36.1-.01.19-.1.31-.23.06-.07.12-.14.19-.23.07-.08.04-.12.13-.21.1-.06.18-.15.3-.25.06-.05.12-.11.2-.18s.17-.14.27-.23c.1-.09.16-.19.23-.29.07-.1.15-.2.26-.31.05-.05.21-.22.36-.38.14-.16.27-.3.3-.31.15-.07.24-.07.27-.03h0ZM39.09,25.67c.02-.07-.01-.17.03-.39-.31-.06-.46.29-.74.36-.05.12-.16.18-.21.3-.24,0-.21.28-.48.27.03.12-.09.09-.21.27-.04.04-.11.05-.27.24-.31.11-.45.41-.98.71-.03.12-.09.21-.33.33-.02.24-.19.33-.24.54-.19.08-.3.24-.48.33-.01.17-.18.38-.36.57-.01,0,0,.05-.21.27-.03.25-.27.28-.27.57-.1,0-.04.09-.27.39-.02.03-.07.05-.18.33-.1.22-.21.41-.18.69-.09.15-.2.42-.09.95-.09.19-.05.32,0,.54.04.2.09.31.15.42.03.05.04.11.24.39.1.08.24.09.33.18.02-.03.22.02.54-.15.08-.04.1-.05.39-.3.13-.12.29-.25.39-.36.05-.06.06-.06.27-.33.02-.03,0-.08.15-.33.12-.05.17-.22.3-.3.17-.18.26-.43.45-.6-.02-.09.05-.14.21-.39.07-.13.07-.31.24-.57.09-.07.16-.23.39-.57.04-.1.06-.18.21-.57.08-.23.12-.48.27-.54.04-.09.03-.23.03-.36.16-.24.25-.54.36-1.22.14-.16.12-.47.27-.8.09-.1.11-.21.15-.36.03-.13.02-.25.15-.51h0Z"/>
      <path class="cls-1" d="M70.93,13.69c.22-.1.27,0,.24.15-.03.15-.14.35-.23.43-.07.06-.24.25-.33.38-.05.03-.09.12-.23.3-.02.03-.02.06-.18.2-.04.05-.1.13-.19.33-.06.08-.16.17-.24.26-.07.08-.13.17-.2.25-.05.05-.11.07-.19.19-.06.06-.11.1-.17.17-.06.08-.12.14-.18.2-.11.11-.28.28-.41.41-.03.03-.08.07-.18.2-.07.07-.16.11-.22.17-.1.09-.18.21-.27.31-.07.08-.12.15-.34.4-.09.08-.23.15-.33.25-.04.04-.07.08-.18.26-.13.15-.3.21-.48.34-.07.05-.14.13-.21.2-.07.07-.15.14-.22.2-.08.08-.13.19-.22.26-.05.04-.12.06-.33.21-.08.04-.16.07-.23.11-.11.07-.2.16-.47.4-.11.07-.24.11-.35.19-.02.01-.04.03-.08.06-.03.03-.08.08-.16.14-.03.03-.08.04-.21.14-.08.05-.16.07-.24.12-.1.06-.17.15-.29.22-.04.03-.07.04-.11.05-.04.01-.09.03-.16.06-.02,0-.04.02-.08.04-.02,0-.04.02-.07.03-.03.01-.07.03-.12.05-.04.02-.08.05-.12.08-.04.03-.08.06-.13.08-.07.04-.15.07-.22.1-.04.01-.07.03-.11.04-.04.01-.07.03-.11.05-.04.02-.09.04-.14.06-.02,0-.05.02-.08.03-.03,0-.06.02-.09.02-.03,0-.06.02-.12.02-.03,0-.07,0-.12,0-.05,0-.11,0-.18-.02-.03,0-.07,0-.1.01-.03,0-.07.02-.1.02-.06,0-.13.02-.2,0-.2.09-.41,0-.59-.09-.1-.05-.19-.11-.28-.17-.11-.07-.22-.15-.33-.28-.03-.03-.06-.06-.1-.13-.04-.07-.1-.17-.16-.35-.04-.08-.09-.15-.14-.22s-.09-.15-.1-.24c0,0,0-.01,0-.02-.05-.1-.08-.22-.1-.35-.13-.02-.09-.2-.27-.51.05-.12.12-.25.03-.6.05-.04,0-.1,0-.36.07-.11,0-.19.03-.45.1-.15.07-.35.12-.51,0-.03.05-.05.09-.36.01-.1.07-.21.1-.3.05-.18.12-.34.18-.52.04-.13.08-.25.12-.38l.05-.17c-.05.02-.09.07-.13.11-.11.12-.26.19-.38.3-.05.05-.1.1-.15.15-.04.04-.18.24-.23.24-.09,0-.13.06-.3.39-.09.03-.09.15-.36.42-.24.03-.21.32-.48.33-.11.3-.43.38-.77.71-.16.04-.22.17-.42.33-.07.16-.24.22-.3.39-.17.06-.33.14-.62.33-.12.09-.18.19-.51.45-.03.02-.06.07-.36.18-.07.08-.13.19-.21.27-.15.01-.19.15-.33.18-.04.05-.08.09-.33.3-.15,0-.22.08-.3.15-.32,0-.51.15-.77.3-.11.1-.3.12-.36.27-.22.04-.42.1-.6.18-.09,0-.2.02-.42.06-.08-.07-.28,0-.6-.09-.03-.02-.06-.03-.27-.21-.18.02-.16-.16-.3-.3-.07-.06-.15-.1-.33-.33-.04-.11.02-.26-.09-.33.04-.13,0-.17-.09-.45-.03-.19-.12-.42-.09-.83,0-.14-.07-.33.03-.48-.07-.06.07-.17.06-.57.09-.22.04-.41.12-.71-.02-.03.02-.25.12-.36.11-.02.1-.18.18-.54.03-.1.12-.17.18-.48.11-.03.13-.15.21-.36.04-.04.09-.1.21-.33.03-.05.08-.09.24-.3.04-.05.05-.13.21-.33.03-.05.06-.12.21-.33,0-.12.02-.18.12-.45.11-.06.14-.19.36-.45.15-.05.15-.25.3-.57.08,0,.12-.04.33-.3.07-.11.11-.25.24-.45.07-.06.15-.11.33-.33.02-.11.06-.19.3-.54.03-.04.03-.11.27-.36.03-.05.03-.11.27-.3.03-.02.05-.07.33-.18,0,0-.01-.05.27-.21.02,0,.07-.01.36-.12.17,0,.54-.02.71.09.21.57-.19.99-.3,1.43-.12.1-.24.22-.24.45-.18.17-.2.49-.39.65-.02.3-.24.41-.27.71-.08,0-.04.12-.18.42-.17.14-.13.48-.36.57.05.14-.11.19-.24.42-.08.14-.12.31-.33.57-.08.12-.13.29-.21.45-.09.19-.17.39-.36.51,0,.21-.12.3-.12.51-.16.1-.18.35-.36.45-.02.22-.12.35-.3.74-.19.18-.2.53-.39.86-.1.12-.2.24-.24.42-.13.07-.16.23-.36.69-.03.09-.08.2-.18.42.05.16-.06.33-.03.51.02.16.17.26.36.39.05.01.05.06.42-.03.18-.04.38,0,.57-.09.11-.05.18-.16.36-.27.05-.05.34-.11.57-.18.11-.05.21-.15.33-.21.11-.06.25-.09.36-.15.21-.12.36-.32.71-.62.08.01.12-.06.36-.18.03-.02.04-.07.33-.21.12-.08.21-.2.33-.3.12-.1.25-.17.57-.45.08-.06.2-.21.45-.42.04-.04.08-.08.24-.24.03-.04.03-.11.3-.21.13-.15.29-.26.48-.36.11-.18.32-.25.42-.45.17-.04.2-.21.42-.48.28-.19.42-.52.8-.83.17-.09.28-.26.48-.33.04-.14.2-.16.39-.48.24-.11.26-.44.45-.6l.15-.39c.04-.08.11-.13.24-.27,0-.13.18-.24.12-.33.12-.07.21-.16.21-.36.09-.01.1-.1.27-.36.05-.07.09-.1.24-.39,0-.02.01-.09.27-.3.02-.07.05-.15.21-.33.03-.07.09-.13.27-.39.04-.04.08-.05.21-.3.07-.09.23-.08.36-.45.12-.07.25-.13.3-.27.33-.08.5-.31,1.01-.24.16.14.14.48,0,.62.04.15-.02.33-.06.51-.02.1-.03.2-.05.29-.02.07-.05.13-.1.18-.04.33-.22.58-.33.89-.07.21-.13.4-.24.6-.06.12-.15.21-.27.54-.02.05-.09.09-.24.45-.04.06-.09.21-.27.54-.04.1-.02.22-.06.33-.04.1-.13.2-.18.3-.06.11-.1.23-.15.33-.05.1-.13.2-.18.3-.04.09-.04.15-.15.51-.02.05-.06.11-.18.33-.02.08,0,.17-.15.45,0,.02-.02.04-.21.3-.05.09-.1.22-.12.36-.04.05-.08.09-.15.39-.11.14-.14.32-.33.71-.09.16-.15.49-.3.65.02.14-.05.27-.06.39-.02.19.04.37-.06.57.11.12.03.23.09.36.06.15.21.27.36.34.08.04.19.04.28.08,0,0,.01,0,.02,0,.08-.01.17-.02.32-.05.03,0,.05,0,.08-.02.02,0,.05-.02.07-.03s.05-.02.07-.03c.02,0,.05-.02.07-.02.03,0,.06,0,.09,0,.03,0,.06,0,.09,0,.06,0,.12,0,.17-.02.06-.02.11-.06.15-.1.05-.04.09-.09.15-.12.04-.02.09-.04.16-.07.04-.02.08-.04.12-.07.05-.03.1-.06.16-.11.1,0,.19-.08.27-.11.04-.01.05.01.24-.07.01,0,.02-.02.06-.05.03-.03.08-.07.15-.15.09-.04.17-.09.24-.13.08-.05.16-.09.27-.13.08-.07.12-.17.18-.25.17-.1.35-.16.49-.25.07-.05.11-.1.18-.15.07-.05.16-.11.33-.17.08-.04.15-.13.26-.13.09-.16.31-.28.54-.56.08-.08.1-.19.4-.34.11-.06.15-.18.28-.23.08-.09.14-.31.34-.4.03-.11.16-.14.24-.22.12-.11.19-.26.34-.43.02-.11.15-.23.42-.42.04-.04.07-.1.25-.29.07-.07.15-.13.22-.16,0-.1.13-.13.31-.37.1-.12.26-.2.3-.32.17-.02.3-.3.5-.54.11-.08.17-.22.39-.43.1-.12.12-.24.25-.37.03-.03.12-.14.21-.24.09-.1.17-.2.18-.21h0Z"/>
      <path class="cls-1" d="M71.06,21.84c-.2-.05-.39-.02-.79,0-.14,0-.21-.09-.33-.12-.05-.09-.09-.18-.39-.39-.04-.04-.22-.14-.33-.42-.06-.15-.21-.26-.24-.42-.03-.07-.11-.09-.15-.36-.09-.07-.08-.24-.21-.27.02-.15-.09-.17-.21-.6,0-.11.02-.2-.03-.36-.04-.13-.13-.32-.06-.8.01-.05,0-.1.06-.39-.01-.14-.07-.25.06-.36-.01-.18.06-.31.24-.68.03-.09.01-.19.21-.54.12-.2.29-.48.42-.71.05-.1.08-.25.21-.3.01-.13.04-.24.18-.48.12-.07.13-.25.27-.3.08-.22.22-.4.39-.54.06-.28.29-.38.51-.74.2-.17.35-.38.68-.62.03-.04.07-.12.3-.39.12-.08.24-.18.36-.27.11-.08.23-.2.39-.24.09-.1.16-.23.27-.33.02-.02.08-.03.3-.18.04-.02.11-.05.45-.21.1-.11.21-.14.42-.21.08-.03.14-.1.36-.12.04-.01.18-.11.51-.09.15,0,.32-.06.45-.06.18,0,.33.13.51.09.13.07.26.14.42.18.14.2.27.37.27.8,0,.11.03.1-.09.42-.08.21-.18.43-.33.57.02.26-.17.32-.21.54-.2.12-.31.32-.51.45-.08.14-.14.29-.3.36-.01.06-.03.12-.3.39-.09.08-.17.27-.33.3-.03.14-.15.19-.39.36-.08.15-.31.14-.39.3-.17-.03-.16.12-.33.09-.1.08-.14.22-.24.3-.23,0-.28.2-.51.21-.15.14-.37.21-.51.36-.12.02-.1,0-.39.18-.18.04-.32.12-.51.15-.12.1-.19.25-.33.33-.04.16-.16.27-.24.42-.07.13-.15.27-.18.45-.13.12-.21.28-.42.71-.07.12-.11.31-.18.48-.06.15-.15.31-.18.77,0,.05-.06.26.03.6-.05.09-.05.19.09.6.04.15.03.36.12.48.05.07.18.12.3.18.1.05.21.14.3.15.11.02.27-.05.65.06.19-.11.43-.04.65-.06.1,0,.19-.06.55-.03.18-.02.33-.13.52-.12.08,0,.11-.04.26-.12.05-.03.12-.06.21-.09.05-.02.12-.05.32-.1.1-.04.16-.12.44-.2.14-.05.29-.18.48-.2.25-.21.56-.39.99-.54.09-.08.18-.15.45-.31.04-.04.06-.1.43-.35.11-.06.25-.11.36-.19.06-.04.12-.11.37-.29.11-.09.23-.19.34-.29.12-.1.23-.21.34-.33.03-.03.06-.05.09-.08.13-.12.23-.21.42-.34.14-.09.3-.17.43-.31.05-.06.19-.06.4-.28.16-.04.27-.15.39-.25.16-.12.39-.21.48-.44.11-.05.19-.11.27-.19.08-.08.14-.17.21-.25.32-.18.57-.43.74-.73.13-.04.14-.17.47-.47.26-.14.35-.41.6-.51.13-.17.79-1.08.99-1.02.09.03.1.13.08.25-.03.11-.09.24-.13.29-.17.2-.35.35-.49.63-.15.09-.23.2-.49.48-.09.12-.1.26-.49.57-.03.03-.05.05-.15.13-.06.04-.14.1-.26.18-.1.18-.25.32-.56.58-.07.06-.15.12-.24.2-.18.04-.21.21-.65.51-.07.06-.21.28-.65.5-.16.06-.31.22-.48.24-.17.15-.32.31-.57.41-.21.34-.61.54-.83.87-.18.04-.28.2-.7.39-.19.12-.3.32-.47.42-.15.09-.36.05-.46.22-.39.03-.51.24-.73.36-.1-.02-.06-.02-.38.14-.13.09-.25.2-.34.31-.08,0-.15,0-.38.11-.35.04-.53.23-.83.31-.12,0-.13.11-.46.05-.07.02-.18.05-.52.12-.05,0-.12.05-.36.06-.19.02-.4.1-.78,0h0ZM71.49,15.92c.22-.05.43-.1.57-.24.12.02.12-.08.33-.18.23-.05.35-.2.51-.33.16-.02.29-.1.42-.18.02-.02.03-.07.33-.27.04-.03.1-.06.39-.24.1-.06.15-.1.45-.39.1-.2.23-.37.45-.45.06-.18.22-.27.39-.57.15-.05.15-.25.3-.3.09-.26.28-.41.51-.8-.05-.19.09-.41-.03-.92-.12-.08-.23-.16-.6-.3-.14.11-.35.14-.54.21-.04.12-.1.22-.24.24-.03.14-.13.2-.27.24-.02.21-.17.29-.36.6-.13.1-.27.21-.33.39-.08.02-.07.12-.3.36-.02.02-.07,0-.27.21-.02.1-.08.16-.18.3,0,.11-.07.2-.3.48.02.16-.08.22-.09.36-.14.07-.18.24-.51.57-.06.07-.11.21-.21.36-.12.08-.14.26-.24.36.03.14-.17.31-.18.51h0Z"/>
      <path class="cls-1" d="M111.05,13.7c.08.12-.18.56-.36.72-.05.05-.13.14-.22.24-.09.1-.19.22-.27.32-.06.05-.14.18-.35.44-.03.04-.04.09-.24.28-.06.07-.13.18-.24.39-.06.09-.17.2-.25.29-.08.09-.14.19-.21.28-.05.06-.11.08-.19.21-.06.07-.12.12-.18.2-.06.08-.12.15-.18.23-.11.13-.29.31-.42.46-.03.04-.08.08-.19.22-.08.08-.16.13-.23.2-.1.11-.19.24-.27.35-.07.09-.13.17-.35.45-.1.09-.24.18-.34.29-.04.05-.08.09-.19.29-.07.08-.15.15-.23.21-.09.06-.18.12-.27.2-.04.03-.07.07-.11.11-.04.04-.08.08-.11.12-.08.08-.16.15-.23.23-.08.09-.14.21-.24.29-.03.02-.06.04-.11.07s-.13.08-.25.17c-.08.05-.17.08-.25.13-.06.04-.12.08-.2.15-.04.03-.09.07-.14.11-.03.02-.06.05-.09.07-.03.03-.07.06-.11.09-.06.04-.13.06-.19.09-.03.01-.07.03-.1.04-.03.01-.07.03-.1.05-.02.01-.05.03-.09.06-.02.02-.04.03-.08.06s-.07.05-.11.08c-.02.01-.04.02-.08.04-.02,0-.04.02-.07.03-.01,0-.03.01-.05.02-.02,0-.04.02-.06.03-.05.02-.09.03-.14.05-.05.01-.09.03-.14.05-.12.04-.22.12-.37.17-.05.02-.09.02-.13.03-.05,0-.11,0-.19.01-.02,0-.05,0-.1.02-.05,0-.12.01-.23.02-.02,0-.05,0-.08.01-.03,0-.05.01-.08.02-.05.01-.11.03-.17.03-.09,0-.18,0-.27,0-.09,0-.18-.01-.27-.01-.05,0-.11,0-.16-.01-.03,0-.06,0-.09,0-.03,0-.06-.01-.1-.02-.03,0-.07-.01-.13-.04-.03-.01-.07-.03-.11-.05s-.1-.05-.17-.09c-.06-.03-.13-.04-.19-.05-.14.1-.32-.13-.41-.27-.05-.06-.15-.07-.27-.24-.05-.06-.2-.11-.42-.33-.04-.09-.16-.16-.21-.45,0-.02-.04-.04-.15-.3-.01-.06.02-.12-.09-.33-.02-.05-.01-.13-.09-.39-.03-.16.03-.31-.09-.42.03-.15.03-.35,0-.57,0-.06-.05-.12-.06-.45,0-.15.02-.33.03-.48,0-.11.06-.24.06-.36,0-.25-.08-.44-.06-.74,0-.07.01-.16.09-.42,0-.13-.05-.26-.06-.69,0-.05,0-.12,0-.45-.04-.12-.16-.21-.15-.36-.14-.1-.35-.13-.48-.24-.22.01-.37-.09-.57-.15-.21-.06-.33-.07-.45-.15-.03-.02-.09-.09-.21-.39-.04-.11-.18-.18-.09-.48.21-.2.95-.25,1.34-.15.06.02.12.02.39.09.13.01.2.01.42.15.06.04.09.14.36.27.02.01.07.13.3.33.04.07.05.15.24.39.39-.07.92,0,1.13-.24.44-.08.69-.34,1.1-.71.08-.06.1-.16.27-.27.02-.02.01-.04.21-.33.07-.13.16-.33.3-.45-.03-.15.09-.26.15-.42.05-.13.07-.28.12-.42.03-.08.08-.17.15-.36.07-.37-.03-.68-.15-.98-.06-.12-.22-.16-.24-.33-.16-.03-.26-.11-.6-.3-.14-.02-.34.05-.51.09s-.32.1-.51.09c-.07.02-.08.08-.36.18-.15.08-.2.17-.48.3-.13.04-.24,0-.36.06-.14.06-.23.18-.3.3-.1,0-.13.05-.42.21-.08-.02-.13.06-.33.21-.16,0-.24.07-.33.15-.19.02-.33.09-.6.42-.1.04-.2.08-.42.33-.21.1-.33.29-.77.51-.18,0-.21.17-.51.3.03.13-.05.15-.27.27-.06.08-.08.2-.33.45-.07.05-.11.14-.27.36-.08.02-.1.09-.21.27-.13.03-.12.19-.36.39-.01.16-.13.22-.3.48.02.23-.1.36-.33.74-.01.2-.08.34-.21.42-.02.2-.14.3-.33.71-.05.1-.02.24-.06.36-.02.07-.15.17-.12.33-.06.12-.22.13-.21.33-.12.04-.17.17-.27.24.03.19-.1.22-.09.39-.14.07-.14.27-.33.62-.04.15-.06.23-.27.51-.03.11.05.16-.06.33-.05.11-.04.15-.27.51-.04.04-.01.16-.12.36-.03.06-.11.14-.27.36-.02.27-.14.44-.3.57-.04.22-.2.34-.6.39-.11.06-.23.16-.36.15-.14,0-.24-.16-.36-.21-.07-.22-.06-.38.24-.77,0-.15.07-.3.12-.42.05-.12.09-.24.18-.33.04-.22.03-.49.18-.6-.01-.14.05-.26.15-.45.03-.06-.02-.14.12-.48.02-.04.07-.07.18-.42.06-.15.11-.37.18-.57.04-.11.11-.24.3-.62.07-.17.1-.38.24-.51.05-.27.14-.55.39-1.04.03-.39.25-.59.3-.95.06-.12.13-.24.18-.39.05-.14.05-.31.21-.68.13-.08.1-.27.15-.39.02-.04.07-.07.18-.39.01-.05.01-.11.21-.42.01-.02-.01-.06.12-.33.02-.03.07-.06.18-.36.1-.26.18-.53.27-.8.07-.22.12-.38.21-.6.04-.1.06-.22.15-.3,0-.15.06-.26.12-.39.05-.11.14-.22.18-.33.04-.11.05-.24.09-.36.04-.11.13-.2.12-.33.18-.11.18-.41.3-.62.04-.07.11-.12.27-.36.02-.29.14-.55.27-.77.09-.17.2-.32.33-.45.02-.19.16-.34.33-.77,0-.01.05-.02.18-.3.02-.04.05-.12.24-.39.09-.15.14-.32.3-.63.11-.12.17-.25.45-.62.03-.04.04-.11.21-.42.27-.16.33-.52.74-.86.15-.19.41-.25.48-.54.12-.02.16-.14.45-.36.17-.11.35-.31.57-.42.07-.02.09-.1.33-.3.16-.19.44-.37.89-.65.04-.04.16-.15.33-.18.11-.06.2-.13.3-.18.1-.05.21-.05.3-.15.18-.03.36,0,.54-.03.14-.02.28-.08.48-.03.06.02.32.15.48.3.03.2.17.29.3.54.02.02,0,.07.21.36.04.14.07.24-.06.36,0,.18-.02.32-.06.45-.03.1-.09.17-.15.3-.03.07-.08.13-.18.6-.13.1-.21.29-.21.45-.12.1-.19.23-.39.48-.12.15-.25.31-.54.57,0,.16-.12.18-.33.54-.04.17-.14.35-.45.54-.21.14-.35.38-.57.51-.03.13-.13.23-.21.33-.02.03-.07.03-.24.27-.08.07-.2.12-.3.15-.14.25-.29.48-.65.83-.24.09-.38.3-.54.48-.25.09-.34.34-.74.62-.11.03-.14.14-.45.39-.03.03-.11.02-.3.21-.04.04-.08.09-.36.33-.07.09-.18.14-.27.21-.21.16-.36.29-.42.62-.08.05-.16.1-.21.36-.11.14-.23.39-.39.8,0,.06,0,.12-.12.33.06.18.25.23.42.3.12-.06.25-.12.36-.12.23-.13.36-.36.77-.6.2-.05.34-.16.45-.3.19.02.2-.13.36-.15.06-.11.22-.12.27-.24.23,0,.35-.16.77-.45.1-.06.23-.07.33-.12.11-.06.2-.12.48-.21.19-.16.48-.24.68-.39.16.02.3,0,.36-.09.23-.03.49-.02.71,0,.06,0,.11-.03.36.03.15.03.3.06.74.18.12.05.23.19.33.3.08.09.15.19.24.27.19.15.26.42.42.6,0,.2.17.37.21.63.02.15,0,.33,0,.48,0,.07-.05.14-.03.54-.09.12-.13.31-.33.65-.05.06-.1.12-.21.3,0,0-.03.06-.21.27-.08.01-.09.09-.24.3-.34.14-.57.4-1.07.62-.14,0-.26-.02-.45.06-.16.07-.27.19-.77.12-.15.1-.44.17-.62.06-.15.05-.23.17-.42.18.03.18.07.35.15.48-.07.18.08.36.06.77.03.35.26.69.12,1.01.05.13.06.25.09.48-.08.07.02.19,0,.54,0,.15.04.26,0,.51.03.08-.04.24-.06.71,0,.11-.01.23-.09.48-.01.08.08.17.03.36-.08.09-.01.2,0,.6,0,.09.05.2.08.28.03.09.04.22.09.29.05.07.12.18.21.2.02,0,.04,0,.06.01.05.02.11.02.17.03.06,0,.12,0,.17.02.03,0,.06.02.09.03.03.01.06.02.09.04.03.01.06.03.09.04.02,0,.03.01.05.01.01,0,.03,0,.04,0,.07,0,.13,0,.2-.03.06-.02.13-.05.19-.05.05,0,.11,0,.19-.01.08,0,.19-.03.34-.08.05,0,.1,0,.16,0,.03,0,.05,0,.08-.01.02,0,.05-.01.07-.01.02,0,.03,0,.06,0,.02,0,.04,0,.07,0,.02,0,.03,0,.06,0,.02,0,.04,0,.07-.01.01,0,.03-.01.07-.04.04-.02.1-.06.19-.13.1-.03.19-.06.27-.1.09-.04.18-.07.3-.11.1-.07.14-.16.22-.25.05-.02.1-.05.14-.06.02,0,.05-.02.07-.03.02,0,.05-.02.07-.03.09-.04.17-.08.25-.13.07-.05.12-.1.19-.16.04-.03.08-.06.14-.09.06-.03.12-.07.21-.1.04-.02.08-.06.13-.09.05-.03.09-.06.15-.06.05-.09.13-.16.24-.26.1-.1.22-.21.33-.36.04-.04.07-.1.12-.16.03-.03.06-.07.11-.1.05-.04.11-.08.19-.12.11-.07.16-.2.3-.27.08-.11.14-.34.35-.46.03-.11.16-.16.25-.26.06-.07.11-.14.16-.22.05-.08.11-.17.19-.26.02-.12.16-.25.43-.48.05-.05.07-.11.25-.33.07-.08.16-.15.23-.19,0-.1.14-.14.33-.42.11-.13.27-.23.31-.36.18-.03.34-.37.61-.71.15-.12.23-.31.55-.63.14-.17.2-.33.38-.52.08-.08.49-.56.53-.58.14-.07.21-.06.24-.02h0ZM97.92,14.49c.12-.14,0-.35,0-.54-.13-.06-.2-.18-.48-.21-.11-.07-.31-.06-.45-.03-.04,0-.05.04-.36.24.06.16.2.16.33.21.12.04.24.09.62.24.09.04.18.12.33.09h0ZM97.02,9.16c.23.04.25-.15.57-.36.1-.17.26-.27.42-.39.11-.12.24-.22.36-.33.12-.1.23-.24.66-.48.12-.25.4-.34.51-.6.2-.06.29-.22.39-.39.2-.1.29-.3.6-.54.09-.08.21-.24.51-.48.13-.1.19-.28.54-.54-.01-.16.12-.18.27-.42.06-.09.08-.22.42-.48.11-.24.26-.43.42-.62.15-.19.35-.38.51-.86-.05-.11.05-.16.09-.39.02-.05.09-.1.21-.33.02-.27.15-.43.18-.68-.17-.22-.44-.33-.48-.68-.15-.12-.19-.13-.54-.24-.29-.01-.46.13-.77.45-.08.07-.18.11-.51.39-.17.16-.28.33-.45.63-.2.22-.28.55-.57.68-.09.23-.3.36-.54.83-.17.28-.37.52-.45.89-.16.17-.35.31-.36.62-.05.05-.11.09-.18.39-.13.11-.14.34-.3.42,0,.26-.19.33-.33.74-.01.32-.26.41-.42.92.02.17-.2.36-.27.74-.05.1-.06.16-.21.48-.04.1-.1.2-.15.3l-.12.3Z"/>
      <path class="cls-1" d="M127.28,13.92s.04.09.02.18c-.05.16-.19.39-.3.48-.08.08-.28.31-.41.47-.05.04-.11.15-.29.37-.03.04-.03.07-.21.24-.05.06-.12.16-.24.37-.07.1-.18.2-.26.29-.08.09-.14.19-.21.26-.05.05-.11.08-.2.2-.06.07-.12.11-.18.19-.07.08-.13.15-.19.22-.12.12-.3.3-.43.44-.03.04-.09.08-.2.21-.08.07-.16.13-.23.19-.1.1-.2.23-.29.33-.07.08-.13.16-.38.43-.1.09-.24.17-.35.28-.05.05-.08.09-.2.27-.07.08-.15.14-.23.2-.08.06-.17.11-.27.19-.07.06-.15.14-.23.22-.08.07-.16.15-.23.22-.08.08-.15.2-.24.27-.05.04-.13.07-.35.23-.08.05-.16.08-.24.13-.12.08-.22.17-.52.42-.03.02-.06.04-.09.05-.03.02-.06.03-.09.05-.06.03-.13.06-.19.1-.04.03-.09.08-.26.21-.04.03-.08.04-.23.14-.08.05-.18.08-.26.12-.05.03-.1.07-.16.1-.05.04-.11.07-.17.11-.04.02-.08.04-.12.05-.02,0-.05.01-.08.02-.03,0-.06.02-.1.03-.02,0-.05.02-.09.03-.04.02-.11.04-.22.07-.05.02-.09.04-.14.06-.05.02-.1.04-.16.06-.04.01-.09.02-.13.03-.04,0-.09.02-.13.02-.04,0-.09.01-.13.02-.04,0-.09,0-.14.01-.11.01-.22.02-.37,0-.03,0-.07-.01-.14-.03-.02,0-.04-.01-.06-.02-.02,0-.04-.02-.07-.03-.03-.01-.05-.03-.08-.04-.03-.02-.06-.04-.09-.06-.02,0-.04-.02-.05-.02s-.04-.02-.05-.03c-.04-.02-.07-.03-.11-.05-.04-.02-.07-.04-.1-.06-.02-.01-.03-.02-.05-.04-.01-.01-.03-.03-.04-.05,0,0,0,0,0-.01-.02-.01-.05-.02-.07-.04-.19-.14-.3-.58-.35-.8-.03-.12-.12-.18-.15-.48-.21-.08-.13-.28-.24-.6-.08-.18-.14-.37-.12-.68,0-.12.01-.27.09-.54.02-.1.02-.24.09-.57.05-.16.02-.34.18-.71.09-.21.26-.49.03-.62-.05.03-.13.11-.36.21-.12.09-.2.24-.36.27-.01.12-.11.14-.36.3-.06.11-.13.2-.39.45-.13.07-.25.15-.3.3-.15,0-.18.12-.33.12-.11.05-.12.19-.21.27-.13-.01-.17.07-.36.21-.06.09-.21.17-.45.39-.02.09-.02.06-.12.33-.16.06-.24.2-.33.33-.35,0-.42.25-.89.54-.04.05-.13.09-.39.3-.05.03-.14.03-.36.15-.07.02-.14,0-.45.18-.12.06-.27.06-.36.18-.17,0-.39.08-.8.06-.17-.01-.27-.06-.39-.06-.06,0-.08.03-.36,0-.04-.06-.14-.05-.3-.27-.02-.03-.03-.07-.18-.3-.05-.08-.15-.18-.24-.27.07-.16-.09-.27-.15-.68,0-.09.05-.26.09-.39.02-.06.03-.12.15-.33.04-.13,0-.27.03-.39.03-.13.12-.31.18-.45.07-.14.1-.35.18-.54.05-.11.14-.22.18-.33.04-.12.03-.22.09-.33.02-.04.07-.05.21-.39.05-.09.07-.18.21-.51.03-.06.11-.12.21-.3.05-.07.14-.17.36-.45-.02-.13.14-.19.24-.45.03-.04.11-.07.24-.3.07-.09.24-.15.24-.3.12-.03.16-.14.48-.39.12-.09.23-.18.36-.3.02-.02.03-.04.21-.27.15-.09.26-.21.42-.33.04-.03.08-.09.3-.18.05-.03.08-.07.36-.27.24-.04.38-.22.57-.36.14-.11.42-.23.74-.42.04-.02.1,0,.39-.18.07-.02.14-.02.33-.12.23,0,.41-.09.6-.18.04-.02.26-.08.42-.03.05-.06.36-.04.48-.06.14-.03.25-.12.51-.15.17-.02.33-.04.45-.12.18.08.52-.08.69.06.09-.09.2-.04.39-.06.08,0,.18-.06.57-.03.08.06.17.11.62.21.13.04.31.14.42.27.17,0,.34.12.57.15.25.03.5-.05.6.12.03.15.03.25.03.45,0,.05-.03.12-.06.51-.02.07-.02.14-.09.36-.03.16-.01.22-.21.48-.02.15,0,.2-.15.42.04.25-.1.31-.24.68-.13.02-.27.18-.21.3-.12.15-.27.27-.3.51-.12-.02-.06.16-.27.45-.01.03-.08.07-.24.36-.03.36-.33.46-.54.95,0,.06,0,.12-.12.36-.24.13-.32.42-.36.74-.08,0-.09.11-.24.27-.03.08-.03.15-.15.33-.01.13-.06.21-.12.48-.14.03-.08.25-.21.39-.12.05-.1.13-.27.36.02.24-.08.36-.18.48.07.2-.02.43,0,.62,0,.08.03.24.03.39,0,0,0,0,.01,0,.01,0,.03.02.04.03.02,0,.03.02.05.03.04.02.07.05.12.07.02.01.05.02.08.04.03.01.06.02.1.04.02.01.05.02.08.02.03,0,.05,0,.08.01.03,0,.06,0,.08,0,.03,0,.05,0,.08.01.06,0,.12.03.18.05.03,0,.06.02.09.02.03,0,.06,0,.09,0,.03,0,.06,0,.09-.02.03-.01.06-.02.09-.04.06-.03.11-.06.18-.08.04-.02.1-.02.18-.05.04-.01.09-.03.14-.05.05-.02.11-.05.18-.09.05,0,.1-.02.15-.04.05-.02.1-.04.14-.05.04,0,.05.01.26-.07.01,0,.03-.02.06-.04.03-.03.09-.07.18-.15.2-.08.32-.19.55-.27.05-.04.08-.08.11-.12.03-.04.06-.09.1-.13.1-.05.19-.1.27-.14.09-.04.17-.09.25-.14.15-.1.19-.2.54-.36.08-.04.17-.14.28-.16.11-.16.34-.3.59-.6.09-.08.12-.19.43-.37.11-.07.17-.19.3-.26.09-.1.17-.32.37-.43.04-.11.17-.15.26-.24.13-.12.21-.28.38-.46.03-.11.17-.24.45-.46.05-.04.07-.1.27-.31.08-.08.16-.14.23-.18.01-.1.14-.14.34-.4.11-.13.27-.22.32-.35.17-.04.33-.34.58-.64.13-.11.21-.27.48-.54.12-.15.17-.29.32-.45.04-.04.15-.17.25-.29.1-.12.19-.23.21-.24.1-.06.16-.07.19-.05h0ZM116.12,16.28c.09-.1.2-.15.24-.27.2-.1.37-.28.65-.6.07-.22.21-.37.27-.6.13-.04.13-.2.24-.33.12-.23.17-.5.36-.65.05-.33.31-.44.6-.98.07-.08.15-.15.39-.51.06-.09.15-.18.15-.3-.21-.02-.25-.21-.42-.27-.04-.01-.1.04-.39-.03-.08-.06-.17-.13-.42-.09-.15,0-.27,0-.6.12-.24.06-.43.01-.86.24-.1.04-.23.02-.33.06-.09.04-.19.12-.39.27-.05.03-.09.07-.48.12-.09,0-.15.08-.27.27-.2.06-.27.26-.54.27-.08.19-.2.34-.42.39-.07.08-.08.21-.18.39-.13.06-.2.17-.24.33-.14.02-.22.1-.45.36-.06.04-.12.07-.33.27-.07,0-.14,0-.21.27-.18.14-.36.29-.57.65-.11,0-.12.12-.36.33-.06.1-.08.26-.24.27-.03.1-.07.19-.27.48-.11.03-.15.13-.36.18.02.16-.13.15-.24.36,0,.11-.05.17-.3.42-.06.19-.2.29-.27.48-.05.03-.09.07-.27.39-.18.05-.2.26-.33.51-.08.12-.25.15-.24.36-.07.02-.06.12-.3.39-.06.04-.12.08-.3.39-.02.15-.06.28-.09.42-.14.09-.16.35.09.6l.15.09c.23-.08.53-.06.77,0,.16-.08.32-.18.57-.18.08-.19.32-.17.63-.36.04-.02.09-.01.42-.15-.01-.09.04-.12.21-.3.04-.02.09-.01.33-.12.06-.07.1-.16.33-.15.09-.11.21-.2.3-.27.04-.04.08-.05.24-.27.08-.1.19-.16.33-.45.07-.04.09-.12.33-.3.11-.1.31-.22.45-.33.16-.09.22-.19.33-.3.26-.15.5-.33.66-.6.16-.05.26-.16.36-.27.16-.07.25-.21.51-.42.11,0,.11-.11.45-.3.04-.03.05-.09.3-.27h0Z"/>
      <path class="cls-1" d="M147.17,13.64c.13-.06.19.08.3.09-.07.12-.13.23-.34.5-.08.09-.13.21-.21.31-.09.1-.22.18-.3.28-.09.11-.12.25-.21.37-.06.09-.18.19-.37.48-.1.06-.17.17-.25.24-.03.03-.05.01-.23.18-.02.02-.04.06-.19.28-.18.15-.28.3-.5.44-.08.1-.12.2-.18.3-.18.15-.36.26-.5.39-.14.13-.19.24-.54.44-.08.05-.17.16-.28.19-.11.17-.35.33-.62.63-.1.09-.14.2-.47.38-.12.07-.19.19-.34.25-.1.1-.22.31-.44.41-.06.1-.2.14-.31.22-.15.11-.27.25-.48.4-.03.05-.09.11-.18.17-.09.06-.22.13-.39.21-.03.02-.06.04-.11.07-.03.02-.06.04-.1.07-.04.03-.09.06-.16.1-.1.06-.21.1-.29.12-.05.08-.19.1-.49.28-.08.04-.17.07-.25.1-.04.01-.08.03-.12.05-.04.02-.07.04-.1.06-.09-.01-.2.03-.34.08-.14.06-.3.13-.48.18-.08,0-.16.03-.26.05-.05.01-.11.02-.18.03-.03,0-.07,0-.11,0-.04,0-.08,0-.13,0-.05,0-.09,0-.13.01-.04,0-.08,0-.12.01-.02,0-.04,0-.06,0s-.04,0-.07,0c-.02,0-.05,0-.07,0-.02,0-.05,0-.08-.02-.01,0-.03,0-.06-.01-.01,0-.03,0-.04,0-.01,0-.03,0-.05-.01-.03-.01-.07-.02-.11-.03-.08-.02-.13-.05-.21-.07-.09-.02-.18-.05-.25-.11-.02-.02-.04-.04-.06-.05-.1-.08-.21-.12-.3-.22-.09-.09-.17-.19-.27-.27,0-.12-.07-.15-.21-.45.01-.08-.09-.11-.21-.42.02-.14-.03-.27-.12-.69-.02-.06-.04-.19.06-.62.04-.28-.01-.57.12-.98.04-.08.12-.22.15-.36.03-.14.02-.25.15-.48.06-.12.13-.17.12-.39.11-.17.2-.35.27-.57.12-.06.17-.19.33-.48.06-.11.12-.16.21-.42.03-.07.04-.29.24-.48.01-.23.14-.36.27-.48-.01-.11.07-.19.21-.39.07-.1.12-.23.27-.42.05-.08.09-.16.36-.36.01,0,.02-.06.27-.24-.02-.12.09-.18.18-.36.08-.07.19-.24.27-.36.04-.06.12-.24.24-.27-.02-.19.18-.39.27-.8-.05-.19-.37-.29-.74-.18-.09,0-.12.06-.48.12-.25.11-.44.28-.68.39-.04.02-.06.06-.3.21,0,.07-.1.07-.36.18-.11.04-.17.12-.48.24-.02.06-.07.08-.3.27-.07.03-.11.09-.33.39-.06,0-.06.08-.33.24-.12.1-.17.26-.54.45-.07.04-.12.11-.3.21-.02.02-.04.06-.3.21-.01,0-.08.02-.27.3-.12.03-.16.14-.45.45-.2.11-.38.27-.51.48-.09-.01-.12.04-.36.12-.08.4-.6.35-.62.8-.04.07-.17.05-.33.39-.16.09-.25.25-.39.36.02.17-.11.18-.27.42-.03.13-.11.22-.33.57-.03.05-.05.12-.27.45-.03.06-.08.21-.24.54-.15.11-.17.35-.36.42-.02.3-.28.36-.3.66-.14.1-.25.23-.3.42-.11.02-.13.13-.27.42-.13.06-.19.19-.45.48-.05.08-.05.13-.36.42,0,.24-.23.24-.45.51-.03.17-.17.23-.21.39-.13.08-.24.2-.33.33-.14.04-.21.15-.33.21-.21-.02-.37-.08-.51-.18,0-.14.01-.29.03-.62.11-.09.09-.2.15-.36.05-.14.17-.38.21-.6.17-.06.12-.33.27-.42,0-.23.07-.38.21-.48,0-.29.2-.39.21-.68.14-.06.12-.29.39-.62.03-.09.02-.21.15-.39.02-.04,0-.08.18-.3.09-.2.07-.41.24-.57.03-.27.1-.49.27-.8.2-.1.16-.44.36-.54-.05-.31.28-.47.51-1.04,0,0,.05-.02.18-.3.13-.14.19-.32.36-.57.04-.07.05-.09.24-.42.06-.09.1-.22.21-.3,0-.26.15-.39.27-.54-.02-.15.06-.24.12-.36.05-.11.12-.22.21-.57.01-.06.1-.19.06-.36-.09-.03-.22-.08-.68-.06-.07.1-.17.15-.36.39-.11,0-.11-.05-.4.21-.08.07-.17.1-.38.27-.06.07-.09.19-.27.33-.18.22-.43.4-.78.77-.14.15-.26.63-.57.44-.17-.1.24-.5.31-.59.04-.05.12-.12.33-.31.19-.19.38-.37.54-.64.21-.11.38-.28.78-.66.08-.06.17-.08.5-.36.03-.02.09-.01.42-.18.06-.01.17-.02.4-.03.11-.02.17-.05.39.06.08.02.15-.02.48.15.09.06.18.12.42.39.01.15.1.31.12.68.02.11.08.21.09.33.05.4-.02.8-.09,1.16.08.22.38.19.57.12.18-.06.32-.23.36-.36.13,0,.12-.14.36-.39.08-.03.15-.1.36-.27.1-.08.33-.16.54-.39.1-.05.2-.11.45-.36.18-.18.36-.35.65-.57.04-.04.09-.16.27-.27.07-.04.19-.09.39-.24.06-.04.13-.06.33-.12.15-.08.23-.25.42-.27.13-.14.32-.22.63-.51.24,0,.44-.14.83-.18.08-.02.21-.03.62,0,.07.02.13.07.48.12.01,0,.04.05.24.24.07.09.25.26.33.54.04.1.14.26.21.69.02.26,0,.48-.09.77-.04.12-.07.19-.18.42-.02.06.01.15-.12.51-.03.06-.11.12-.27.39-.07.44-.26.77-.54,1.28-.17.15-.21.37-.51.83-.05.09-.1.18-.18.36-.03.05-.1.1-.3.45-.1.18-.17.4-.33.54,0,.25-.24.34-.33.54-.05.11,0,.25-.06.36-.04.09-.14.14-.27.45-.02.05-.05.07-.18.3-.03.33-.19.52-.36.92,0,.14-.05.28-.06.48,0,.15,0,.19.06.57.01.06.07.12.11.16.06.06.11.06.18.09.05.02.08.05.13.06.04.01.09.02.13.03.04,0,.08.02.13.03.05,0,.1.02.15.02.05,0,.1,0,.14,0,.03,0,.06,0,.13,0,.06-.01.15-.02.27-.05.04,0,.06-.02.28-.05.03,0,.08-.02.14-.05.03-.01.06-.03.1-.05.02,0,.04-.02.06-.03.02-.01.05-.03.07-.04.1-.04.25-.08.36-.13.06-.02.11-.05.16-.08s.1-.05.15-.08c.07-.03.13-.03.27-.12.08-.04.16-.07.24-.12.09-.06.17-.1.26-.15.15-.08.38-.21.55-.32.04-.03.1-.06.25-.17.09-.06.19-.09.27-.15.13-.08.25-.19.36-.28.09-.07.17-.14.45-.38.11-.08.27-.15.39-.25.05-.04.09-.08.24-.26.16-.16.34-.23.54-.38.08-.06.16-.15.24-.22.08-.08.17-.15.24-.23.09-.09.15-.2.24-.29.05-.05.13-.08.35-.27.08-.06.16-.1.24-.16.11-.09.21-.2.48-.5.1-.1.23-.17.34-.28.04-.04.08-.09.22-.27.03-.04.07-.06.19-.2.07-.07.15-.13.22-.2.08-.09.15-.2.24-.32.06-.08.11-.11.23-.22.04-.03.06-.08.22-.23.06-.07.11-.17.18-.26.11-.14.22-.26.32-.4.06-.08.11-.17.2-.27.04-.05.08-.11.31-.3.1-.1.15-.25.26-.34h0Z"/>
      <path class="cls-1" d="M163.43,13.92s.04.09.02.18c-.05.16-.19.39-.3.48-.08.08-.28.31-.41.47-.05.04-.11.15-.29.37-.03.04-.03.07-.21.24-.05.06-.12.16-.24.37-.07.1-.18.2-.26.29-.08.09-.14.19-.21.26-.05.05-.11.08-.2.2-.06.07-.12.11-.18.19-.07.08-.13.15-.19.22-.12.12-.3.3-.43.44-.03.04-.09.08-.2.21-.08.07-.16.13-.23.19-.1.1-.2.23-.29.33-.07.08-.13.16-.38.43-.1.09-.24.17-.35.28-.05.05-.08.09-.2.27-.07.08-.15.14-.23.2-.08.06-.17.11-.27.19-.07.06-.15.14-.23.22-.08.07-.16.15-.23.22-.08.08-.15.2-.24.27-.05.04-.13.07-.35.23-.08.05-.16.08-.24.13-.12.08-.22.17-.52.42-.03.02-.06.04-.09.05-.03.02-.06.03-.09.05-.06.03-.13.06-.19.1-.04.03-.09.08-.26.21-.04.03-.08.04-.23.14-.08.05-.18.08-.26.12-.05.03-.1.07-.16.1-.05.04-.11.07-.17.11-.04.02-.08.04-.12.05-.02,0-.05.01-.08.02-.03,0-.06.02-.1.03-.02,0-.05.02-.09.03-.04.02-.11.04-.22.07-.05.02-.09.04-.14.06-.05.02-.1.04-.16.06-.04.01-.09.02-.13.03-.04,0-.09.02-.13.02-.04,0-.09.01-.13.02-.04,0-.09,0-.14.01-.11.01-.22.02-.37,0-.03,0-.07-.01-.14-.03-.02,0-.04-.01-.06-.02-.02,0-.04-.02-.07-.03-.03-.01-.05-.03-.08-.04-.03-.02-.06-.04-.09-.06-.02,0-.04-.02-.05-.02s-.04-.02-.05-.03c-.04-.02-.07-.03-.11-.05-.04-.02-.07-.04-.1-.06-.02-.01-.03-.02-.05-.04-.01-.01-.03-.03-.04-.05,0,0,0,0,0-.01-.02-.01-.05-.02-.07-.04-.19-.14-.3-.58-.35-.8-.03-.12-.12-.18-.15-.48-.21-.08-.13-.28-.24-.6-.08-.18-.14-.37-.12-.68,0-.12.01-.27.09-.54.02-.1.02-.24.09-.57.05-.16.02-.34.18-.71.09-.21.26-.49.03-.62-.05.03-.13.11-.36.21-.12.09-.2.24-.36.27-.01.12-.11.14-.36.3-.06.11-.13.2-.39.45-.13.07-.25.15-.3.3-.15,0-.18.12-.33.12-.11.05-.12.19-.21.27-.13-.01-.17.07-.36.21-.06.09-.21.17-.45.39-.02.09-.02.06-.12.33-.16.06-.24.2-.33.33-.35,0-.42.25-.89.54-.04.05-.13.09-.39.3-.05.03-.14.03-.36.15-.07.02-.14,0-.45.18-.12.06-.27.06-.36.18-.17,0-.39.08-.8.06-.17-.01-.27-.06-.39-.06-.06,0-.08.03-.36,0-.04-.06-.14-.05-.3-.27-.02-.03-.03-.07-.18-.3-.05-.08-.15-.18-.24-.27.07-.16-.09-.27-.15-.68,0-.09.05-.26.09-.39.02-.06.03-.12.15-.33.04-.13,0-.27.03-.39.03-.13.12-.31.18-.45.07-.14.1-.35.18-.54.05-.11.14-.22.18-.33.04-.12.03-.22.09-.33.02-.04.07-.05.21-.39.05-.09.07-.18.21-.51.03-.06.11-.12.21-.3.05-.07.14-.17.36-.45-.02-.13.14-.19.24-.45.03-.04.11-.07.24-.3.07-.09.24-.15.24-.3.12-.03.16-.14.48-.39.12-.09.23-.18.36-.3.02-.02.03-.04.21-.27.15-.09.26-.21.42-.33.04-.03.08-.09.3-.18.05-.03.08-.07.36-.27.24-.04.38-.22.57-.36.14-.11.42-.23.74-.42.04-.02.1,0,.39-.18.07-.02.14-.02.33-.12.23,0,.41-.09.6-.18.04-.02.26-.08.42-.03.05-.06.36-.04.48-.06.14-.03.25-.12.51-.15.17-.02.33-.04.45-.12.18.08.52-.08.69.06.09-.09.2-.04.39-.06.08,0,.18-.06.57-.03.08.06.17.11.62.21.13.04.31.14.42.27.17,0,.34.12.57.15.25.03.5-.05.6.12.03.15.03.25.03.45,0,.05-.03.12-.06.51-.02.07-.02.14-.09.36-.03.16-.01.22-.21.48-.02.15,0,.2-.15.42.04.25-.1.31-.24.68-.13.02-.27.18-.21.3-.12.15-.27.27-.3.51-.12-.02-.06.16-.27.45-.01.03-.08.07-.24.36-.03.36-.33.46-.54.95,0,.06,0,.12-.12.36-.24.13-.32.42-.36.74-.08,0-.09.11-.24.27-.03.08-.03.15-.15.33-.01.13-.06.21-.12.48-.14.03-.08.25-.21.39-.12.05-.1.13-.27.36.02.24-.08.36-.18.48.07.2-.02.43,0,.62,0,.08.03.24.03.39,0,0,0,0,.01,0,.01,0,.03.02.04.03.02,0,.03.02.05.03.04.02.07.05.12.07.02.01.05.02.08.04.03.01.06.02.1.04.02.01.05.02.08.02.03,0,.05,0,.08.01.03,0,.06,0,.08,0,.03,0,.05,0,.08.01.06,0,.12.03.18.05.03,0,.06.02.09.02.03,0,.06,0,.09,0,.03,0,.06,0,.09-.02.03-.01.06-.02.09-.04.06-.03.11-.06.18-.08.04-.02.1-.02.18-.05.04-.01.09-.03.14-.05.05-.02.11-.05.18-.09.05,0,.1-.02.15-.04.05-.02.1-.04.14-.05.04,0,.05.01.26-.07.01,0,.03-.02.06-.04.03-.03.09-.07.18-.15.2-.08.32-.19.55-.27.05-.04.08-.08.11-.12.03-.04.06-.09.1-.13.1-.05.19-.1.27-.14.09-.04.17-.09.25-.14.15-.1.19-.2.54-.36.08-.04.17-.14.28-.16.11-.16.34-.3.59-.6.09-.08.12-.19.43-.37.11-.07.17-.19.3-.26.09-.1.17-.32.37-.43.04-.11.17-.15.26-.24.13-.12.21-.28.38-.46.03-.11.17-.24.45-.46.05-.04.07-.1.27-.31.08-.08.16-.14.23-.18.01-.1.14-.14.34-.4.11-.13.27-.22.32-.35.17-.04.33-.34.58-.64.13-.11.21-.27.48-.54.12-.15.17-.29.32-.45.04-.04.15-.17.25-.29.1-.12.19-.23.21-.24.1-.06.16-.07.19-.05h0ZM152.27,16.28c.09-.1.2-.15.24-.27.2-.1.37-.28.65-.6.07-.22.21-.37.27-.6.13-.04.13-.2.24-.33.12-.23.17-.5.36-.65.05-.33.31-.44.6-.98.07-.08.15-.15.39-.51.06-.09.15-.18.15-.3-.21-.02-.25-.21-.42-.27-.04-.01-.1.04-.39-.03-.08-.06-.17-.13-.42-.09-.15,0-.27,0-.6.12-.24.06-.43.01-.86.24-.1.04-.23.02-.33.06-.09.04-.19.12-.39.27-.05.03-.09.07-.48.12-.09,0-.15.08-.27.27-.2.06-.27.26-.54.27-.08.19-.2.34-.42.39-.07.08-.08.21-.18.39-.13.06-.2.17-.24.33-.14.02-.22.1-.45.36-.06.04-.12.07-.33.27-.07,0-.14,0-.21.27-.18.14-.36.29-.57.65-.11,0-.12.12-.36.33-.06.1-.08.26-.24.27-.03.1-.07.19-.27.48-.11.03-.15.13-.36.18.02.16-.13.15-.24.36,0,.11-.05.17-.3.42-.06.19-.2.29-.27.48-.05.03-.09.07-.27.39-.18.05-.2.26-.33.51-.08.12-.25.15-.24.36-.07.02-.06.12-.3.39-.06.04-.12.08-.3.39-.02.15-.06.28-.09.42-.14.09-.16.35.09.6l.15.09c.23-.08.53-.06.77,0,.16-.08.32-.18.57-.18.08-.19.32-.17.63-.36.04-.02.09-.01.42-.15-.01-.09.04-.12.21-.3.04-.02.09-.01.33-.12.06-.07.1-.16.33-.15.09-.11.21-.2.3-.27.04-.04.08-.05.24-.27.08-.1.19-.16.33-.45.07-.04.09-.12.33-.3.11-.1.31-.22.45-.33.16-.09.22-.19.33-.3.26-.15.5-.33.66-.6.16-.05.26-.16.36-.27.16-.07.25-.21.51-.42.11,0,.11-.11.45-.3.04-.03.05-.09.3-.27h0Z"/>
      <path class="cls-1" d="M173.48,13.92c.14-.05.23.11.35.14-.06.11-.12.23-.32.5-.07.09-.11.22-.19.31-.08.1-.22.18-.3.28-.09.11-.1.26-.17.39-.05.09-.17.2-.33.5-.1.06-.16.18-.24.25-.03.03-.05.01-.22.18-.02.02-.04.07-.16.29-.17.16-.26.31-.47.46-.07.11-.09.21-.14.32-.17.16-.34.27-.48.41-.13.13-.16.26-.51.46-.08.06-.15.17-.27.19-.09.19-.32.36-.56.68-.09.09-.11.21-.44.4-.12.07-.18.2-.32.27-.09.1-.18.34-.41.44-.05.11-.19.15-.29.23-.15.12-.25.27-.45.43-.05.12-.22.23-.56.39-.03.02-.05.04-.1.08-.05.04-.12.09-.25.17-.1.06-.21.1-.3.11-.02.05-.07.07-.15.11-.08.04-.19.08-.35.17-.17.08-.37.09-.48.19-.09-.03-.21,0-.35.05-.14.05-.31.11-.5.13-.08,0-.16,0-.27,0-.11,0-.25,0-.42-.06-.05,0-.09-.02-.13-.02-.04,0-.08-.01-.12-.02-.21-.05-.47-.19-.65-.32-.14-.1-.54-.44-.59-.61-.04-.15-.1-.28-.27-.65,0,0-.04-.09-.12-.36-.03-.09-.06-.19-.24-.57-.03-.14.02-.31,0-.48,0-.07-.05-.14-.03-.48,0-.17-.04-.37-.03-.77.03-.18.16-.34.09-.51.07-.09.1-.22.15-.51.15.19.07-.38.12-.54.18,0,.13-.21.18-.42.1,0,.04-.1.18-.39.03-.02.07-.03.21-.33-.02-.15.1-.27.24-.71.11-.23.31-.41.48-.86.09-.04.13-.04.33-.33.04-.32.25-.47.54-.95.06-.09.19-.12.36-.48.02.02.05.03.24-.24,0,0,.02-.06.3-.24.16-.05.17-.25.42-.45.13-.04.25-.17.62-.24.03.01.15,0,.51.03.04.11.13.19.15.33.04.27-.06.55-.12.74-.06.18-.14.47-.3.54-.07.27-.18.52-.36.68-.06.22-.2.34-.3.57-.06.14-.12.27-.15.48-.1.03-.11.17-.27.36-.01.02-.01.07-.18.36-.03.04-.12.12-.3.45-.03.05-.03.12-.15.3-.04.09-.03.2-.18.6-.01.02-.07.06-.21.33-.02.05,0,.1-.15.33-.03.07-.02.16-.12.33-.03.07-.08.17-.15.39-.01.03-.05.02-.12.36-.02.07-.06.15-.24.51-.02.2-.05.38-.15.74-.11.14-.11.27-.15.51-.02.11-.08.23-.06.54.05.63-.24,1.19.45,1.57.08.04.17.08.25.09.01,0,.02.01.04.02.02,0,.04,0,.07.01.06,0,.14.01.26.01.02,0,.03,0,.07,0,.04,0,.09,0,.2,0,.03,0,.07,0,.13-.03.06-.02.13-.05.23-.1.1-.03.24-.05.36-.1.11-.04.21-.1.31-.14.07-.03.13-.02.26-.11.04-.02.08-.03.12-.05.04-.02.08-.03.12-.06.09-.05.17-.1.25-.15.15-.08.38-.21.54-.32.04-.03.1-.06.24-.17.09-.06.19-.09.27-.15.12-.09.23-.2.34-.3.08-.08.16-.15.42-.4.11-.08.26-.16.37-.26.05-.05.09-.09.21-.28.15-.17.32-.24.51-.4.07-.06.15-.15.22-.24.07-.08.16-.16.22-.24.08-.09.13-.22.21-.31.05-.05.13-.08.33-.28.07-.06.16-.1.23-.17.11-.1.19-.21.43-.53.1-.1.22-.18.32-.29.04-.04.07-.1.19-.29.03-.04.07-.07.18-.21.06-.07.14-.13.2-.21.08-.1.13-.22.21-.33.06-.08.1-.11.22-.23.03-.03.06-.08.21-.24.06-.08.1-.18.16-.28.1-.15.2-.27.29-.42.05-.09.1-.17.18-.28.04-.05.08-.11.31-.3.09-.1.13-.26.25-.35h0ZM168.07,6.28c-.07-.09-.23-.11-.27-.27-.05-.19.05-.44.24-.8.07-.07.2-.06.33-.12.01,0,.05-.06.39-.09.21-.04.32-.14.77.03.17.11.16.29.36.39.1.23.06.35.03.57-.06.03-.09.09-.27.24-.1.03-.2.05-.45.21-.15.02-.21.13-.33.18-.32.04-.45-.1-.8-.33h0Z"/>
    </g>
  </g>
</svg>